<svg width="292" height="29" viewBox="0 0 292 29" fill="none" xmlns="http://www.w3.org/2000/svg">
<path d="M22.1631 11.9738H16.8959C16.7997 11.2961 16.6033 10.6942 16.3067 10.168C16.01 9.63383 15.6292 9.17939 15.1642 8.80467C14.6992 8.42996 14.1621 8.14294 13.5528 7.94362C12.9515 7.74431 12.2981 7.64465 11.5926 7.64465C10.3179 7.64465 9.20757 7.95957 8.26156 8.58941C7.31555 9.21128 6.58199 10.1202 6.06088 11.3161C5.53977 12.504 5.27922 13.947 5.27922 15.6452C5.27922 17.3912 5.53977 18.8582 6.06088 20.0461C6.59 21.2341 7.32757 22.131 8.27358 22.7369C9.21959 23.3428 10.3139 23.6458 11.5566 23.6458C12.254 23.6458 12.8994 23.5541 13.4927 23.3707C14.094 23.1874 14.6271 22.9203 15.0921 22.5695C15.5571 22.2107 15.9419 21.7762 16.2465 21.2659C16.5592 20.7557 16.7757 20.1737 16.8959 19.5199L22.1631 19.5438C22.0268 20.668 21.6861 21.7523 21.1409 22.7967C20.6038 23.8331 19.8782 24.762 18.9643 25.5831C18.0584 26.3964 16.9761 27.0421 15.7174 27.5205C14.4667 27.9909 13.0517 28.2261 11.4724 28.2261C9.27571 28.2261 7.31154 27.7318 5.57986 26.7432C3.8562 25.7546 2.4933 24.3235 1.49117 22.4499C0.497056 20.5763 0 18.3081 0 15.6452C0 12.9744 0.505073 10.7022 1.51522 8.82859C2.52537 6.95501 3.89628 5.5279 5.62796 4.54727C7.35964 3.55866 9.30778 3.06435 11.4724 3.06435C12.8994 3.06435 14.2222 3.26367 15.4408 3.6623C16.6674 4.06093 17.7537 4.64294 18.6997 5.40831C19.6458 6.16572 20.4154 7.09453 21.0086 8.19476C21.6099 9.29499 21.9947 10.5547 22.1631 11.9738Z" fill="#1B1C21"/>
<path d="M29.2305 3.3992V27.8912H24.1076V3.3992H29.2305Z" fill="#1B1C21"/>
<path d="M36.9082 28.238C35.7297 28.238 34.6795 28.0347 33.7575 27.6281C32.8356 27.2136 32.106 26.6036 31.5689 25.7984C31.0398 24.9852 30.7752 23.9727 30.7752 22.7608C30.7752 21.7403 30.9636 20.8833 31.3404 20.1896C31.7172 19.496 32.2303 18.9379 32.8797 18.5154C33.5291 18.0928 34.2666 17.7739 35.0924 17.5587C35.9261 17.3434 36.8 17.1919 37.7139 17.1042C38.7882 16.9926 39.6541 16.889 40.3115 16.7933C40.9689 16.6896 41.4459 16.5382 41.7425 16.3388C42.0391 16.1395 42.1875 15.8445 42.1875 15.4539V15.3821C42.1875 14.6247 41.9469 14.0387 41.4659 13.6241C40.9929 13.2096 40.3195 13.0023 39.4456 13.0023C38.5237 13.0023 37.7901 13.2056 37.2449 13.6122C36.6998 14.0108 36.339 14.5131 36.1627 15.119L31.4246 14.7363C31.6651 13.6202 32.1381 12.6555 32.8436 11.8423C33.5491 11.0211 34.459 10.3912 35.5734 9.95273C36.6958 9.50626 37.9945 9.28303 39.4697 9.28303C40.4959 9.28303 41.4779 9.40262 42.4159 9.6418C43.3619 9.88098 44.1997 10.2517 44.9293 10.754C45.6668 11.2563 46.2481 11.9021 46.673 12.6913C47.0979 13.4727 47.3103 14.4095 47.3103 15.5017V27.8912H42.452V25.344H42.3077C42.0111 25.918 41.6142 26.4243 41.1172 26.8628C40.6201 27.2933 40.0229 27.6321 39.3254 27.8793C38.6279 28.1184 37.8222 28.238 36.9082 28.238ZM38.3754 24.7221C39.129 24.7221 39.7944 24.5746 40.3716 24.2796C40.9488 23.9766 41.4018 23.57 41.7305 23.0598C42.0592 22.5495 42.2235 21.9715 42.2235 21.3257V19.3764C42.0632 19.4801 41.8427 19.5757 41.5621 19.6634C41.2895 19.7432 40.9809 19.8189 40.6362 19.8907C40.2914 19.9544 39.9467 20.0142 39.602 20.07C39.2572 20.1179 38.9446 20.1617 38.664 20.2016C38.0627 20.2893 37.5376 20.4288 37.0886 20.6202C36.6397 20.8115 36.2909 21.0706 36.0424 21.3975C35.7939 21.7164 35.6696 22.115 35.6696 22.5934C35.6696 23.287 35.9221 23.8172 36.4272 24.1839C36.9403 24.5427 37.5897 24.7221 38.3754 24.7221Z" fill="#1B1C21"/>
<path d="M64.9602 14.7603L60.2703 15.0473C60.1901 14.6486 60.0177 14.2899 59.7532 13.971C59.4886 13.6441 59.1399 13.385 58.707 13.1936C58.2821 12.9943 57.773 12.8946 57.1797 12.8946C56.386 12.8946 55.7166 13.0621 55.1714 13.3969C54.6263 13.7238 54.3537 14.1623 54.3537 14.7124C54.3537 15.1509 54.5301 15.5216 54.8828 15.8246C55.2356 16.1276 55.8409 16.3707 56.6987 16.5541L60.0418 17.2238C61.8376 17.5905 63.1765 18.1805 64.0583 18.9937C64.9402 19.8069 65.3811 20.8753 65.3811 22.1987C65.3811 23.4026 65.0244 24.459 64.3109 25.3679C63.6054 26.2768 62.6353 26.9863 61.4007 27.4966C60.1741 27.9989 58.7591 28.25 57.1557 28.25C54.7105 28.25 52.7623 27.7437 51.3112 26.7312C49.8682 25.7107 49.0224 24.3235 48.7738 22.5695L53.8126 22.3064C53.9649 23.0478 54.3337 23.6139 54.9189 24.0046C55.5042 24.3872 56.2537 24.5786 57.1677 24.5786C58.0656 24.5786 58.7871 24.4072 59.3323 24.0643C59.8855 23.7136 60.1661 23.2631 60.1741 22.713C60.1661 22.2506 59.9696 21.8719 59.5848 21.5769C59.2 21.2739 58.6067 21.0427 57.805 20.8833L54.6062 20.2494C52.8024 19.8907 51.4596 19.2688 50.5777 18.3838C49.7038 17.4989 49.2669 16.3707 49.2669 14.9994C49.2669 13.8195 49.5876 12.803 50.2289 11.9499C50.8783 11.0968 51.7883 10.4391 52.9587 9.97665C54.1372 9.51424 55.5162 9.28303 57.0955 9.28303C59.4285 9.28303 61.2644 9.77335 62.6032 10.754C63.9501 11.7346 64.7358 13.07 64.9602 14.7603Z" fill="#1B1C21"/>
<path d="M82.2825 14.7603L77.5925 15.0473C77.5123 14.6486 77.34 14.2899 77.0754 13.971C76.8108 13.6441 76.4621 13.385 76.0292 13.1936C75.6043 12.9943 75.0952 12.8946 74.5019 12.8946C73.7082 12.8946 73.0388 13.0621 72.4937 13.3969C71.9485 13.7238 71.6759 14.1623 71.6759 14.7124C71.6759 15.1509 71.8523 15.5216 72.205 15.8246C72.5578 16.1276 73.1631 16.3707 74.0209 16.5541L77.364 17.2238C79.1598 17.5905 80.4987 18.1805 81.3805 18.9937C82.2624 19.8069 82.7034 20.8753 82.7034 22.1987C82.7034 23.4026 82.3466 24.459 81.6331 25.3679C80.9276 26.2768 79.9575 26.9863 78.7229 27.4966C77.4963 27.9989 76.0813 28.25 74.4779 28.25C72.0327 28.25 70.0845 27.7437 68.6335 26.7312C67.1904 25.7107 66.3446 24.3235 66.0961 22.5695L71.1348 22.3064C71.2871 23.0478 71.6559 23.6139 72.2411 24.0046C72.8264 24.3872 73.576 24.5786 74.4899 24.5786C75.3878 24.5786 76.1093 24.4072 76.6545 24.0643C77.2077 23.7136 77.4883 23.2631 77.4963 22.713C77.4883 22.2506 77.2919 21.8719 76.907 21.5769C76.5222 21.2739 75.929 21.0427 75.1273 20.8833L71.9285 20.2494C70.1246 19.8907 68.7818 19.2688 67.8999 18.3838C67.026 17.4989 66.5891 16.3707 66.5891 14.9994C66.5891 13.8195 66.9098 12.803 67.5512 11.9499C68.2005 11.0968 69.1105 10.4391 70.281 9.97665C71.4595 9.51424 72.8384 9.28303 74.4177 9.28303C76.7507 9.28303 78.5866 9.77335 79.9255 10.754C81.2723 11.7346 82.058 13.07 82.2825 14.7603Z" fill="#1B1C21"/>
<path d="M84.236 27.8912V9.52221H89.3589V27.8912H84.236ZM86.8095 7.15433C86.0479 7.15433 85.3945 6.90319 84.8493 6.40091C84.3122 5.89066 84.0436 5.28075 84.0436 4.57118C84.0436 3.86959 84.3122 3.26765 84.8493 2.76538C85.3945 2.25513 86.0479 2 86.8095 2C87.5711 2 88.2205 2.25513 88.7576 2.76538C89.3028 3.26765 89.5754 3.86959 89.5754 4.57118C89.5754 5.28075 89.3028 5.89066 88.7576 6.40091C88.2205 6.90319 87.5711 7.15433 86.8095 7.15433Z" fill="#1B1C21"/>
<path d="M100.115 28.25C98.2231 28.25 96.5957 27.8514 95.2328 27.0541C93.8779 26.2489 92.8357 25.1327 92.1061 23.7056C91.3846 22.2785 91.0238 20.6361 91.0238 18.7785C91.0238 16.8969 91.3886 15.2466 92.1182 13.8274C92.8557 12.4003 93.902 11.2882 95.2568 10.4909C96.6117 9.68565 98.2231 9.28303 100.091 9.28303C101.703 9.28303 103.114 9.57403 104.324 10.156C105.535 10.738 106.493 11.5552 107.198 12.6076C107.904 13.66 108.293 14.8958 108.365 16.3149H103.53C103.394 15.3981 103.033 14.6606 102.448 14.1025C101.871 13.5364 101.113 13.2534 100.175 13.2534C99.3816 13.2534 98.6881 13.4687 98.0949 13.8992C97.5096 14.3218 97.0527 14.9396 96.7239 15.7528C96.3952 16.5661 96.2309 17.5507 96.2309 18.7067C96.2309 19.8787 96.3913 20.8753 96.7119 21.6965C97.0406 22.5177 97.5016 23.1435 98.0949 23.574C98.6881 24.0046 99.3816 24.2198 100.175 24.2198C100.761 24.2198 101.286 24.1002 101.751 23.861C102.224 23.6219 102.612 23.2751 102.917 22.8206C103.23 22.3582 103.434 21.8041 103.53 21.1583H108.365C108.285 22.5615 107.9 23.7973 107.21 24.8656C106.529 25.926 105.587 26.7551 104.384 27.3531C103.182 27.951 101.759 28.25 100.115 28.25Z" fill="#1B1C21"/>
<path d="M115.219 28.238C114.04 28.238 112.99 28.0347 112.068 27.6281C111.146 27.2136 110.416 26.6036 109.879 25.7984C109.35 24.9852 109.086 23.9727 109.086 22.7608C109.086 21.7403 109.274 20.8833 109.651 20.1896C110.028 19.496 110.541 18.9379 111.19 18.5154C111.839 18.0928 112.577 17.7739 113.403 17.5587C114.237 17.3434 115.11 17.1919 116.024 17.1042C117.099 16.9926 117.964 16.889 118.622 16.7933C119.279 16.6896 119.756 16.5382 120.053 16.3388C120.35 16.1395 120.498 15.8445 120.498 15.4539V15.3821C120.498 14.6247 120.257 14.0387 119.776 13.6241C119.303 13.2096 118.63 13.0023 117.756 13.0023C116.834 13.0023 116.101 13.2056 115.555 13.6122C115.01 14.0108 114.649 14.5131 114.473 15.119L109.735 14.7363C109.976 13.6202 110.449 12.6555 111.154 11.8423C111.86 11.0211 112.769 10.3912 113.884 9.95273C115.006 9.50626 116.305 9.28303 117.78 9.28303C118.806 9.28303 119.788 9.40262 120.726 9.6418C121.672 9.88098 122.51 10.2517 123.24 10.754C123.977 11.2563 124.559 11.9021 124.983 12.6913C125.408 13.4727 125.621 14.4095 125.621 15.5017V27.8912H120.762V25.344H120.618C120.322 25.918 119.925 26.4243 119.428 26.8628C118.931 27.2933 118.333 27.6321 117.636 27.8793C116.938 28.1184 116.133 28.238 115.219 28.238ZM116.686 24.7221C117.439 24.7221 118.105 24.5746 118.682 24.2796C119.259 23.9766 119.712 23.57 120.041 23.0598C120.37 22.5495 120.534 21.9715 120.534 21.3257V19.3764C120.374 19.4801 120.153 19.5757 119.873 19.6634C119.6 19.7432 119.291 19.8189 118.947 19.8907C118.602 19.9544 118.257 20.0142 117.912 20.07C117.568 20.1179 117.255 20.1617 116.974 20.2016C116.373 20.2893 115.848 20.4288 115.399 20.6202C114.95 20.8115 114.601 21.0706 114.353 21.3975C114.104 21.7164 113.98 22.115 113.98 22.5934C113.98 23.287 114.233 23.8172 114.738 24.1839C115.251 24.5427 115.9 24.7221 116.686 24.7221Z" fill="#1B1C21"/>
<path d="M133.025 3.3992V27.8912H127.902V3.3992H133.025Z" fill="#1B1C21"/>
<path d="M141.676 27.8912V3.3992H151.537C153.349 3.3992 154.86 3.66629 156.071 4.20046C157.281 4.73463 158.191 5.47608 158.8 6.42483C159.41 7.3656 159.714 8.44989 159.714 9.67768C159.714 10.6344 159.522 11.4755 159.137 12.201C158.752 12.9186 158.223 13.5085 157.55 13.971C156.884 14.4254 156.123 14.7483 155.265 14.9396V15.1788C156.203 15.2187 157.081 15.4818 157.899 15.9681C158.724 16.4544 159.394 17.1361 159.907 18.0131C160.42 18.8821 160.676 19.9186 160.676 21.1224C160.676 22.422 160.352 23.582 159.702 24.6025C159.061 25.615 158.111 26.4163 156.852 27.0063C155.594 27.5962 154.042 27.8912 152.198 27.8912H141.676ZM146.883 23.6577H151.128C152.579 23.6577 153.638 23.3827 154.303 22.8326C154.968 22.2745 155.301 21.533 155.301 20.6082C155.301 19.9305 155.137 19.3326 154.808 18.8144C154.479 18.2961 154.01 17.8895 153.401 17.5945C152.8 17.2995 152.082 17.1521 151.248 17.1521H146.883V23.6577ZM146.883 13.6481H150.743C151.457 13.6481 152.09 13.5245 152.643 13.2773C153.205 13.0222 153.646 12.6634 153.966 12.201C154.295 11.7386 154.459 11.1845 154.459 10.5387C154.459 9.65376 154.143 8.94021 153.509 8.39806C152.884 7.85592 151.994 7.58485 150.84 7.58485H146.883V13.6481Z" fill="#1B1C21"/>
<path d="M167.542 28.238C166.364 28.238 165.314 28.0347 164.392 27.6281C163.47 27.2136 162.74 26.6036 162.203 25.7984C161.674 24.9852 161.409 23.9727 161.409 22.7608C161.409 21.7403 161.598 20.8833 161.975 20.1896C162.351 19.496 162.865 18.9379 163.514 18.5154C164.163 18.0928 164.901 17.7739 165.727 17.5587C166.56 17.3434 167.434 17.1919 168.348 17.1042C169.422 16.9926 170.288 16.889 170.946 16.7933C171.603 16.6896 172.08 16.5382 172.377 16.3388C172.673 16.1395 172.822 15.8445 172.822 15.4539V15.3821C172.822 14.6247 172.581 14.0387 172.1 13.6241C171.627 13.2096 170.954 13.0023 170.08 13.0023C169.158 13.0023 168.424 13.2056 167.879 13.6122C167.334 14.0108 166.973 14.5131 166.797 15.119L162.059 14.7363C162.299 13.6202 162.772 12.6555 163.478 11.8423C164.183 11.0211 165.093 10.3912 166.208 9.95273C167.33 9.50626 168.629 9.28303 170.104 9.28303C171.13 9.28303 172.112 9.40262 173.05 9.6418C173.996 9.88098 174.834 10.2517 175.563 10.754C176.301 11.2563 176.882 11.9021 177.307 12.6913C177.732 13.4727 177.945 14.4095 177.945 15.5017V27.8912H173.086V25.344H172.942C172.645 25.918 172.248 26.4243 171.751 26.8628C171.254 27.2933 170.657 27.6321 169.96 27.8793C169.262 28.1184 168.456 28.238 167.542 28.238ZM169.01 24.7221C169.763 24.7221 170.429 24.5746 171.006 24.2796C171.583 23.9766 172.036 23.57 172.365 23.0598C172.693 22.5495 172.858 21.9715 172.858 21.3257V19.3764C172.697 19.4801 172.477 19.5757 172.196 19.6634C171.924 19.7432 171.615 19.8189 171.27 19.8907C170.926 19.9544 170.581 20.0142 170.236 20.07C169.891 20.1179 169.579 20.1617 169.298 20.2016C168.697 20.2893 168.172 20.4288 167.723 20.6202C167.274 20.8115 166.925 21.0706 166.677 21.3975C166.428 21.7164 166.304 22.115 166.304 22.5934C166.304 23.287 166.556 23.8172 167.061 24.1839C167.575 24.5427 168.224 24.7221 169.01 24.7221Z" fill="#1B1C21"/>
<path d="M185.349 3.3992V27.8912H180.226V3.3992H185.349Z" fill="#1B1C21"/>
<path d="M192.882 3.3992V27.8912H187.759V3.3992H192.882Z" fill="#1B1C21"/>
<path d="M203.711 28.25C201.81 28.25 200.175 27.8673 198.804 27.1019C197.441 26.3286 196.391 25.2363 195.653 23.8252C194.916 22.406 194.547 20.7278 194.547 18.7904C194.547 16.9009 194.916 15.2426 195.653 13.8155C196.391 12.3884 197.429 11.2762 198.768 10.4789C200.115 9.68166 201.694 9.28303 203.506 9.28303C204.725 9.28303 205.859 9.47836 206.909 9.86902C207.968 10.2517 208.89 10.8297 209.675 11.6031C210.469 12.3764 211.086 13.3491 211.527 14.5211C211.968 15.6851 212.189 17.0484 212.189 18.611V20.0103H196.591V16.8531H207.366C207.366 16.1196 207.206 15.4698 206.885 14.9038C206.565 14.3377 206.12 13.8952 205.55 13.5763C204.989 13.2494 204.336 13.086 203.59 13.086C202.813 13.086 202.123 13.2654 201.522 13.6241C200.929 13.9749 200.464 14.4493 200.127 15.0473C199.79 15.6372 199.618 16.295 199.61 17.0205V20.0222C199.61 20.9311 199.778 21.7164 200.115 22.3781C200.46 23.0399 200.945 23.5501 201.57 23.9089C202.195 24.2677 202.937 24.447 203.795 24.447C204.364 24.447 204.885 24.3673 205.358 24.2079C205.831 24.0484 206.236 23.8092 206.573 23.4903C206.909 23.1714 207.166 22.7808 207.342 22.3183L212.08 22.6293C211.84 23.7614 211.347 24.75 210.601 25.5951C209.864 26.4322 208.91 27.086 207.739 27.5564C206.577 28.0188 205.234 28.25 203.711 28.25Z" fill="#1B1C21"/>
<path d="M223.663 9.52221V13.3491H212.54V9.52221H223.663ZM215.065 5.1213H220.188V22.2466C220.188 22.717 220.26 23.0837 220.404 23.3468C220.549 23.6019 220.749 23.7813 221.006 23.885C221.27 23.9886 221.575 24.0404 221.92 24.0404C222.16 24.0404 222.401 24.0205 222.641 23.9806C222.882 23.9328 223.066 23.8969 223.194 23.873L224 27.664C223.743 27.7437 223.383 27.8354 222.918 27.9391C222.453 28.0507 221.888 28.1184 221.222 28.1424C219.987 28.1902 218.905 28.0268 217.975 27.652C217.053 27.2773 216.336 26.6953 215.823 25.906C215.31 25.1167 215.057 24.1202 215.065 22.9163V5.1213Z" fill="#1B1C21"/>
<path d="M231.146 4.66675H291.667L288.021 28.0001H227.5L231.146 4.66675Z" fill="#DD2C27"/>
<path d="M247.983 10.8315L246.223 21.4376H244.286L240.79 14.7622H240.707L239.594 21.4376H237.351L239.112 10.8315H241.08L244.56 17.5017H244.648L245.751 10.8315H247.983Z" fill="white"/>
<path d="M248.367 21.4376L250.128 10.8315H257.274L256.964 12.6803H252.059L251.645 15.2076H256.182L255.871 17.0564H251.334L250.92 19.5888H255.845L255.534 21.4376H248.367Z" fill="white"/>
<path d="M259.976 21.4376L258.702 10.8315H261.151L261.69 18.2009H261.778L264.932 10.8315H267.029L267.744 18.2164H267.837L270.809 10.8315H273.259L268.463 21.4376H266.278L265.418 14.5032H265.336L262.161 21.4376H259.976Z" fill="white"/>
<path d="M279.887 13.9129C279.904 13.4813 279.778 13.1481 279.509 12.9134C279.243 12.6786 278.841 12.5612 278.302 12.5612C277.936 12.5612 277.619 12.613 277.349 12.7166C277.08 12.8167 276.864 12.9565 276.702 13.1361C276.543 13.3121 276.445 13.5158 276.407 13.7472C276.369 13.937 276.381 14.1028 276.443 14.2443C276.509 14.3859 276.61 14.5084 276.749 14.612C276.89 14.7121 277.058 14.8002 277.251 14.8761C277.444 14.9486 277.65 15.0108 277.867 15.0626L278.779 15.2904C279.224 15.394 279.624 15.5321 279.98 15.7047C280.339 15.8773 280.639 16.0897 280.881 16.3417C281.126 16.5937 281.299 16.8906 281.399 17.2324C281.499 17.5742 281.513 17.9661 281.44 18.408C281.33 19.0571 281.073 19.6198 280.669 20.0963C280.265 20.5693 279.735 20.937 279.079 21.1994C278.423 21.4583 277.663 21.5878 276.8 21.5878C275.944 21.5878 275.221 21.4566 274.63 21.1942C274.04 20.9318 273.61 20.5434 273.341 20.029C273.075 19.5111 272.996 18.8707 273.103 18.1077H275.273C275.235 18.4633 275.286 18.7602 275.428 18.9984C275.573 19.2332 275.789 19.411 276.075 19.5318C276.362 19.6492 276.698 19.7079 277.085 19.7079C277.468 19.7079 277.808 19.6526 278.105 19.5422C278.406 19.4317 278.649 19.278 278.836 19.0813C279.022 18.8845 279.136 18.6583 279.177 18.4028C279.219 18.1646 279.183 17.9644 279.069 17.8021C278.955 17.6398 278.772 17.5017 278.52 17.3878C278.271 17.2704 277.962 17.1668 277.593 17.0771L276.484 16.7871C275.628 16.5696 274.981 16.2295 274.542 15.7669C274.104 15.3042 273.947 14.6811 274.071 13.8973C274.182 13.2552 274.449 12.6941 274.874 12.2142C275.302 11.7309 275.841 11.3563 276.49 11.0905C277.142 10.8212 277.855 10.6865 278.628 10.6865C279.416 10.6865 280.08 10.8229 280.622 11.0956C281.164 11.3649 281.56 11.7413 281.808 12.2246C282.057 12.708 282.133 13.2707 282.036 13.9129H279.887Z" fill="white"/>
</svg>
