<svg width="209" height="21" viewBox="0 0 209 21" fill="none" xmlns="http://www.w3.org/2000/svg">
<path d="M15.8308 8.55261H12.0685C11.9998 8.06856 11.8595 7.6386 11.6476 7.26275C11.4357 6.8812 11.1637 6.5566 10.8316 6.28895C10.4995 6.02129 10.1158 5.81628 9.68057 5.67391C9.25109 5.53154 8.78438 5.46036 8.28045 5.46036C7.36995 5.46036 6.57683 5.6853 5.90111 6.13519C5.22539 6.57938 4.70142 7.22858 4.3292 8.0828C3.95698 8.93131 3.77087 9.96207 3.77087 11.175C3.77087 12.4222 3.95698 13.47 4.3292 14.3186C4.70715 15.1671 5.23398 15.8077 5.9097 16.2405C6.58542 16.6733 7.36708 16.8897 8.25468 16.8897C8.75289 16.8897 9.21387 16.8243 9.63762 16.6933C10.0671 16.5623 10.4479 16.3715 10.7801 16.1209C11.1122 15.8647 11.3871 15.5543 11.6047 15.1899C11.828 14.8254 11.9826 14.4097 12.0685 13.9427L15.8308 13.9598C15.7334 14.7627 15.4901 15.5372 15.1007 16.2833C14.717 17.0236 14.1987 17.687 13.5459 18.2736C12.8988 18.8544 12.1258 19.3157 11.2267 19.6574C10.3334 19.9934 9.32267 20.1614 8.19456 20.1614C6.62551 20.1614 5.22253 19.8083 3.98561 19.1022C2.75442 18.396 1.78093 17.3738 1.06512 16.0355C0.35504 14.6973 0 13.0771 0 11.175C0 9.26731 0.360767 7.6443 1.0823 6.30603C1.80383 4.96776 2.78306 3.9484 4.01997 3.24794C5.25689 2.54179 6.64841 2.18872 8.19456 2.18872C9.21387 2.18872 10.1587 2.33109 11.0292 2.61582C11.9053 2.90056 12.6812 3.31628 13.357 3.86298C14.0327 4.40398 14.5824 5.06742 15.0062 5.8533C15.4357 6.63917 15.7105 7.53895 15.8308 8.55261Z" fill="#1B1C21"/>
<path d="M20.8789 2.4279V19.9222H17.2197V2.4279H20.8789Z" fill="#1B1C21"/>
<path d="M26.363 20.1699C25.5212 20.1699 24.7711 20.0247 24.1125 19.7343C23.454 19.4381 22.9329 19.0025 22.5492 18.4273C22.1713 17.8465 21.9823 17.1232 21.9823 16.2576C21.9823 15.5287 22.1169 14.9165 22.386 14.4211C22.6551 13.9256 23.0216 13.527 23.4855 13.2252C23.9493 12.9233 24.4762 12.6956 25.066 12.5418C25.6615 12.388 26.2857 12.2798 26.9385 12.2172C27.7059 12.1375 28.3243 12.0634 28.7939 11.9951C29.2635 11.9211 29.6042 11.8129 29.8161 11.6705C30.028 11.5281 30.1339 11.3174 30.1339 11.0384V10.9871C30.1339 10.4461 29.9621 10.0276 29.6185 9.73143C29.2807 9.4353 28.7996 9.28724 28.1754 9.28724C27.5169 9.28724 26.9929 9.43245 26.6035 9.72289C26.2141 10.0076 25.9564 10.3664 25.8305 10.7992L22.4461 10.5258C22.6179 9.72858 22.9558 9.03951 23.4597 8.45865C23.9636 7.87209 24.6136 7.4222 25.4096 7.10899C26.2113 6.79008 27.139 6.63063 28.1926 6.63063C28.9256 6.63063 29.6271 6.71605 30.2971 6.8869C30.9728 7.05774 31.5712 7.32254 32.0923 7.68131C32.6192 8.04008 33.0343 8.50136 33.3378 9.06514C33.6413 9.62323 33.7931 10.2924 33.7931 11.0725V19.9222H30.3229V18.1027H30.2198C30.0079 18.5128 29.7245 18.8744 29.3694 19.1876C29.0144 19.4951 28.5877 19.7371 28.0895 19.9137C27.5913 20.0845 27.0158 20.1699 26.363 20.1699ZM27.411 17.6585C27.9493 17.6585 28.4245 17.5532 28.8369 17.3425C29.2492 17.1261 29.5727 16.8356 29.8075 16.4712C30.0423 16.1067 30.1597 15.6938 30.1597 15.2326V13.8402C30.0451 13.9142 29.8877 13.9826 29.6872 14.0452C29.4925 14.1022 29.2721 14.1563 29.0258 14.2075C28.7796 14.2531 28.5333 14.2958 28.2871 14.3356C28.0409 14.3698 27.8175 14.4011 27.6171 14.4296C27.1876 14.4922 26.8125 14.5919 26.4919 14.7286C26.1712 14.8653 25.9221 15.0503 25.7446 15.2838C25.567 15.5116 25.4783 15.7963 25.4783 16.138C25.4783 16.6335 25.6587 17.0122 26.0194 17.2741C26.3859 17.5304 26.8498 17.6585 27.411 17.6585Z" fill="#1B1C21"/>
<path d="M46.4002 10.5429L43.0502 10.7479C42.9929 10.4632 42.8698 10.2069 42.6808 9.97915C42.4919 9.74567 42.2428 9.56059 41.9335 9.42391C41.63 9.28154 41.2664 9.21036 40.8426 9.21036C40.2757 9.21036 39.7976 9.32995 39.4082 9.56913C39.0188 9.80261 38.8241 10.1158 38.8241 10.5088C38.8241 10.822 38.9501 11.0868 39.202 11.3032C39.454 11.5196 39.8863 11.6933 40.4991 11.8243L42.887 12.3026C44.1697 12.5646 45.126 12.986 45.7559 13.5668C46.3859 14.1477 46.7008 14.9108 46.7008 15.8561C46.7008 16.7161 46.446 17.4706 45.9363 18.1198C45.4324 18.769 44.7395 19.2758 43.8576 19.6403C42.9815 19.9991 41.9708 20.1785 40.8255 20.1785C39.0789 20.1785 37.6874 19.8168 36.6509 19.0936C35.6201 18.3647 35.016 17.3738 34.8385 16.1209L38.4375 15.933C38.5463 16.4626 38.8098 16.867 39.2278 17.146C39.6458 17.4194 40.1812 17.556 40.8341 17.556C41.4754 17.556 41.9908 17.4336 42.3802 17.1887C42.7753 16.9381 42.9758 16.6164 42.9815 16.2235C42.9758 15.8932 42.8355 15.6227 42.5606 15.412C42.2857 15.1956 41.862 15.0304 41.2893 14.9165L39.0045 14.4638C37.716 14.2075 36.7568 13.7633 36.1269 13.1312C35.5027 12.4991 35.1906 11.6933 35.1906 10.7138C35.1906 9.87095 35.4197 9.14487 35.8778 8.53553C36.3417 7.92619 36.9916 7.45637 37.8277 7.12607C38.6695 6.79578 39.6544 6.63063 40.7825 6.63063C42.4489 6.63063 43.7603 6.98086 44.7166 7.68131C45.6786 8.38177 46.2398 9.33564 46.4002 10.5429Z" fill="#1B1C21"/>
<path d="M58.7732 10.5429L55.4232 10.7479C55.3659 10.4632 55.2428 10.2069 55.0538 9.97915C54.8649 9.74567 54.6158 9.56059 54.3065 9.42391C54.003 9.28154 53.6394 9.21036 53.2157 9.21036C52.6487 9.21036 52.1706 9.32995 51.7812 9.56913C51.3918 9.80261 51.1971 10.1158 51.1971 10.5088C51.1971 10.822 51.3231 11.0868 51.575 11.3032C51.827 11.5196 52.2593 11.6933 52.8721 11.8243L55.26 12.3026C56.5427 12.5646 57.499 12.986 58.129 13.5668C58.7589 14.1477 59.0738 14.9108 59.0738 15.8561C59.0738 16.7161 58.819 17.4706 58.3093 18.1198C57.8054 18.769 57.1125 19.2758 56.2306 19.6403C55.3545 19.9991 54.3438 20.1785 53.1985 20.1785C51.4519 20.1785 50.0604 19.8168 49.0239 19.0936C47.9931 18.3647 47.389 17.3738 47.2115 16.1209L50.8105 15.933C50.9193 16.4626 51.1828 16.867 51.6008 17.146C52.0188 17.4194 52.5542 17.556 53.2071 17.556C53.8484 17.556 54.3638 17.4336 54.7532 17.1887C55.1483 16.9381 55.3488 16.6164 55.3545 16.2235C55.3488 15.8932 55.2085 15.6227 54.9336 15.412C54.6587 15.1956 54.235 15.0304 53.6623 14.9165L51.3775 14.4638C50.089 14.2075 49.1298 13.7633 48.4999 13.1312C47.8757 12.4991 47.5636 11.6933 47.5636 10.7138C47.5636 9.87095 47.7927 9.14487 48.2508 8.53553C48.7147 7.92619 49.3646 7.45637 50.2007 7.12607C51.0425 6.79578 52.0274 6.63063 53.1555 6.63063C54.8219 6.63063 56.1333 6.98086 57.0896 7.68131C58.0516 8.38177 58.6128 9.33564 58.7732 10.5429Z" fill="#1B1C21"/>
<path d="M60.1686 19.9222V6.80147H63.8278V19.9222H60.1686ZM62.0068 5.11013C61.4628 5.11013 60.996 4.93074 60.6066 4.57197C60.223 4.20751 60.0311 3.77186 60.0311 3.26503C60.0311 2.76389 60.223 2.33393 60.6066 1.97516C60.996 1.6107 61.4628 1.42847 62.0068 1.42847C62.5508 1.42847 63.0146 1.6107 63.3983 1.97516C63.7877 2.33393 63.9824 2.76389 63.9824 3.26503C63.9824 3.77186 63.7877 4.20751 63.3983 4.57197C63.0146 4.93074 62.5508 5.11013 62.0068 5.11013Z" fill="#1B1C21"/>
<path d="M71.5108 20.1785C70.1594 20.1785 68.9969 19.8937 68.0234 19.3243C67.0556 18.7491 66.3112 17.9518 65.7901 16.9325C65.2747 15.9131 65.017 14.74 65.017 13.4131C65.017 12.0691 65.2776 10.8903 65.7987 9.87665C66.3255 8.85728 67.0728 8.06286 68.0406 7.49339C69.0084 6.91822 70.1594 6.63063 71.4936 6.63063C72.6447 6.63063 73.6525 6.83849 74.5172 7.25421C75.3819 7.66992 76.0662 8.25364 76.5701 9.00535C77.0741 9.75705 77.3518 10.6397 77.4033 11.6534H73.9503C73.8529 10.9985 73.5952 10.4717 73.1772 10.0731C72.7649 9.66879 72.2238 9.46662 71.5538 9.46662C70.9869 9.46662 70.4915 9.62038 70.0678 9.9279C69.6497 10.2297 69.3233 10.6711 69.0885 11.2519C68.8537 11.8328 68.7364 12.5361 68.7364 13.3618C68.7364 14.199 68.8509 14.9108 69.0799 15.4974C69.3147 16.0839 69.644 16.531 70.0678 16.8385C70.4915 17.146 70.9869 17.2998 71.5538 17.2998C71.9718 17.2998 72.3469 17.2143 72.679 17.0435C73.0169 16.8727 73.2946 16.6249 73.5122 16.3003C73.7355 15.97 73.8816 15.5743 73.9503 15.113H77.4033C77.3461 16.1153 77.0712 16.9979 76.5787 17.761C76.092 18.5184 75.4191 19.1107 74.5602 19.5378C73.7012 19.9649 72.6847 20.1785 71.5108 20.1785Z" fill="#1B1C21"/>
<path d="M82.299 20.1699C81.4572 20.1699 80.7071 20.0247 80.0485 19.7343C79.39 19.4381 78.8689 19.0025 78.4852 18.4273C78.1073 17.8465 77.9183 17.1232 77.9183 16.2576C77.9183 15.5287 78.0529 14.9165 78.322 14.4211C78.5911 13.9256 78.9576 13.527 79.4215 13.2252C79.8853 12.9233 80.4122 12.6956 81.002 12.5418C81.5975 12.388 82.2217 12.2798 82.8745 12.2172C83.6419 12.1375 84.2603 12.0634 84.7299 11.9951C85.1995 11.9211 85.5402 11.8129 85.7521 11.6705C85.964 11.5281 86.0699 11.3174 86.0699 11.0384V10.9871C86.0699 10.4461 85.8981 10.0276 85.5545 9.73143C85.2167 9.4353 84.7356 9.28724 84.1115 9.28724C83.4529 9.28724 82.9289 9.43245 82.5395 9.72289C82.1501 10.0076 81.8924 10.3664 81.7665 10.7992L78.3821 10.5258C78.5539 9.72858 78.8918 9.03951 79.3957 8.45865C79.8997 7.87209 80.5496 7.4222 81.3456 7.10899C82.1473 6.79008 83.075 6.63063 84.1286 6.63063C84.8616 6.63063 85.5631 6.71605 86.2331 6.8869C86.9088 7.05774 87.5072 7.32254 88.0284 7.68131C88.5552 8.04008 88.9704 8.50136 89.2739 9.06514C89.5774 9.62323 89.7291 10.2924 89.7291 11.0725V19.9222H86.2589V18.1027H86.1558C85.9439 18.5128 85.6605 18.8744 85.3054 19.1876C84.9504 19.4951 84.5238 19.7371 84.0256 19.9137C83.5274 20.0845 82.9519 20.1699 82.299 20.1699ZM83.347 17.6585C83.8853 17.6585 84.3606 17.5532 84.7729 17.3425C85.1852 17.1261 85.5087 16.8356 85.7435 16.4712C85.9783 16.1067 86.0957 15.6938 86.0957 15.2326V13.8402C85.9811 13.9142 85.8237 13.9826 85.6232 14.0452C85.4285 14.1022 85.2081 14.1563 84.9618 14.2075C84.7156 14.2531 84.4694 14.2958 84.2231 14.3356C83.9769 14.3698 83.7536 14.4011 83.5531 14.4296C83.1236 14.4922 82.7486 14.5919 82.4279 14.7286C82.1072 14.8653 81.8581 15.0503 81.6806 15.2838C81.5031 15.5116 81.4143 15.7963 81.4143 16.138C81.4143 16.6335 81.5947 17.0122 81.9554 17.2741C82.3219 17.5304 82.7858 17.6585 83.347 17.6585Z" fill="#1B1C21"/>
<path d="M95.0178 2.4279V19.9222H91.3586V2.4279H95.0178Z" fill="#1B1C21"/>
<path d="M101.197 19.9222V2.4279H108.241C109.535 2.4279 110.614 2.61867 111.479 3.00022C112.344 3.38177 112.994 3.91138 113.429 4.58906C113.864 5.26104 114.082 6.03553 114.082 6.91252C114.082 7.59589 113.944 8.19669 113.669 8.71491C113.395 9.22744 113.017 9.64885 112.536 9.97915C112.06 10.3038 111.516 10.5344 110.904 10.6711V10.8419C111.574 10.8704 112.201 11.0583 112.785 11.4057C113.374 11.7531 113.853 12.24 114.219 12.8664C114.586 13.4871 114.769 14.2274 114.769 15.0873C114.769 16.0156 114.537 16.8442 114.073 17.5731C113.615 18.2963 112.936 18.8687 112.037 19.2901C111.138 19.7115 110.03 19.9222 108.713 19.9222H101.197ZM104.917 16.8983H107.949C108.985 16.8983 109.741 16.7018 110.216 16.3089C110.692 15.9102 110.929 15.3806 110.929 14.72C110.929 14.236 110.812 13.8089 110.577 13.4387C110.342 13.0686 110.007 12.7781 109.572 12.5674C109.143 12.3567 108.63 12.2514 108.035 12.2514H104.917V16.8983ZM104.917 9.74851H107.674C108.183 9.74851 108.636 9.66024 109.031 9.48371C109.432 9.30147 109.747 9.04521 109.976 8.71491C110.211 8.38462 110.328 7.98883 110.328 7.52756C110.328 6.89544 110.102 6.38576 109.649 5.99851C109.203 5.61127 108.567 5.41765 107.743 5.41765H104.917V9.74851Z" fill="#1B1C21"/>
<path d="M119.673 20.1699C118.831 20.1699 118.081 20.0247 117.423 19.7343C116.764 19.4381 116.243 19.0025 115.859 18.4273C115.481 17.8465 115.292 17.1232 115.292 16.2576C115.292 15.5287 115.427 14.9165 115.696 14.4211C115.965 13.9256 116.332 13.527 116.796 13.2252C117.259 12.9233 117.786 12.6956 118.376 12.5418C118.972 12.388 119.596 12.2798 120.249 12.2172C121.016 12.1375 121.634 12.0634 122.104 11.9951C122.574 11.9211 122.914 11.8129 123.126 11.6705C123.338 11.5281 123.444 11.3174 123.444 11.0384V10.9871C123.444 10.4461 123.272 10.0276 122.929 9.73143C122.591 9.4353 122.11 9.28724 121.486 9.28724C120.827 9.28724 120.303 9.43245 119.914 9.72289C119.524 10.0076 119.267 10.3664 119.141 10.7992L115.756 10.5258C115.928 9.72858 116.266 9.03951 116.77 8.45865C117.274 7.87209 117.924 7.4222 118.72 7.10899C119.521 6.79008 120.449 6.63063 121.503 6.63063C122.236 6.63063 122.937 6.71605 123.607 6.8869C124.283 7.05774 124.881 7.32254 125.402 7.68131C125.929 8.04008 126.344 8.50136 126.648 9.06514C126.951 9.62323 127.103 10.2924 127.103 11.0725V19.9222H123.633V18.1027H123.53C123.318 18.5128 123.035 18.8744 122.68 19.1876C122.325 19.4951 121.898 19.7371 121.4 19.9137C120.901 20.0845 120.326 20.1699 119.673 20.1699ZM120.721 17.6585C121.259 17.6585 121.735 17.5532 122.147 17.3425C122.559 17.1261 122.883 16.8356 123.118 16.4712C123.352 16.1067 123.47 15.6938 123.47 15.2326V13.8402C123.355 13.9142 123.198 13.9826 122.997 14.0452C122.803 14.1022 122.582 14.1563 122.336 14.2075C122.09 14.2531 121.843 14.2958 121.597 14.3356C121.351 14.3698 121.128 14.4011 120.927 14.4296C120.498 14.4922 120.123 14.5919 119.802 14.7286C119.481 14.8653 119.232 15.0503 119.055 15.2838C118.877 15.5116 118.788 15.7963 118.788 16.138C118.788 16.6335 118.969 17.0122 119.33 17.2741C119.696 17.5304 120.16 17.6585 120.721 17.6585Z" fill="#1B1C21"/>
<path d="M132.392 2.4279V19.9222H128.733V2.4279H132.392Z" fill="#1B1C21"/>
<path d="M137.773 2.4279V19.9222H134.114V2.4279H137.773Z" fill="#1B1C21"/>
<path d="M145.507 20.1785C144.15 20.1785 142.982 19.9051 142.003 19.3584C141.029 18.806 140.279 18.0258 139.752 17.0179C139.226 16.0042 138.962 14.8055 138.962 13.4216C138.962 12.072 139.226 10.8875 139.752 9.8681C140.279 8.84874 141.021 8.05432 141.977 7.48484C142.939 6.91537 144.067 6.63063 145.361 6.63063C146.232 6.63063 147.042 6.77015 147.792 7.0492C148.548 7.32254 149.207 7.73541 149.768 8.28781C150.335 8.8402 150.776 9.53496 151.091 10.3721C151.406 11.2035 151.563 12.1773 151.563 13.2935V14.2929H140.422V12.0378H148.119C148.119 11.5139 148.004 11.0498 147.775 10.6454C147.546 10.2411 147.228 9.92505 146.822 9.69726C146.421 9.46377 145.954 9.34703 145.422 9.34703C144.866 9.34703 144.374 9.47516 143.944 9.73143C143.52 9.982 143.188 10.3208 142.948 10.7479C142.707 11.1694 142.584 11.6392 142.578 12.1574V14.3015C142.578 14.9507 142.699 15.5116 142.939 15.9843C143.185 16.4569 143.532 16.8214 143.979 17.0777C144.425 17.3339 144.955 17.4621 145.568 17.4621C145.974 17.4621 146.346 17.4051 146.684 17.2912C147.022 17.1773 147.311 17.0065 147.552 16.7787C147.792 16.5509 147.976 16.2719 148.102 15.9416L151.486 16.1637C151.314 16.9723 150.962 17.6785 150.429 18.2821C149.903 18.8801 149.221 19.347 148.385 19.683C147.555 20.0133 146.596 20.1785 145.507 20.1785Z" fill="#1B1C21"/>
<path d="M159.76 6.80147V9.53496H151.814V6.80147H159.76ZM153.618 3.65797H157.277V15.8903C157.277 16.2263 157.329 16.4883 157.432 16.6762C157.535 16.8584 157.678 16.9866 157.861 17.0606C158.05 17.1346 158.268 17.1716 158.514 17.1716C158.686 17.1716 158.858 17.1574 159.029 17.1289C159.201 17.0948 159.333 17.0691 159.424 17.052L160 19.7599C159.817 19.8169 159.559 19.8823 159.227 19.9564C158.895 20.0361 158.491 20.0845 158.016 20.1016C157.134 20.1358 156.361 20.019 155.697 19.7514C155.038 19.4837 154.526 19.068 154.159 18.5042C153.793 17.9404 153.612 17.2286 153.618 16.3687V3.65797Z" fill="#1B1C21"/>
<path d="M165.104 3.33325H208.333L205.729 19.9999H162.5L165.104 3.33325Z" fill="#DD2C27"/>
<path d="M177.131 7.73666L175.873 15.3124H174.49L171.993 10.5443H171.934L171.138 15.3124H169.537L170.794 7.73666H172.2L174.686 12.5011H174.749L175.537 7.73666H177.131Z" fill="white"/>
<path d="M177.405 15.3124L178.663 7.73666H183.767L183.546 9.05724H180.042L179.747 10.8624H182.987L182.765 12.183H179.525L179.229 13.9918H182.747L182.525 15.3124H177.405Z" fill="white"/>
<path d="M185.697 15.3124L184.787 7.73666H186.536L186.921 13.0005H186.984L189.237 7.73666H190.735L191.245 13.0116H191.312L193.435 7.73666H195.185L191.76 15.3124H190.199L189.585 10.3593H189.525L187.258 15.3124H185.697Z" fill="white"/>
<path d="M199.919 9.93763C199.932 9.62937 199.841 9.39139 199.649 9.2237C199.459 9.05601 199.172 8.97216 198.787 8.97216C198.526 8.97216 198.299 9.00915 198.107 9.08313C197.914 9.15465 197.76 9.25452 197.644 9.38276C197.531 9.50853 197.461 9.65403 197.433 9.81925C197.406 9.95489 197.415 10.0733 197.459 10.1744C197.506 10.2755 197.579 10.363 197.678 10.437C197.779 10.5085 197.898 10.5714 198.036 10.6257C198.174 10.6774 198.321 10.7218 198.477 10.7588L199.128 10.9216C199.446 10.9956 199.732 11.0942 199.986 11.2175C200.242 11.3408 200.457 11.4925 200.629 11.6725C200.804 11.8525 200.928 12.0646 200.999 12.3087C201.071 12.5529 201.081 12.8328 201.029 13.1484C200.95 13.6121 200.766 14.014 200.478 14.3544C200.189 14.6922 199.811 14.9548 199.342 15.1423C198.874 15.3272 198.331 15.4197 197.715 15.4197C197.103 15.4197 196.586 15.326 196.165 15.1386C195.743 14.9511 195.436 14.6737 195.244 14.3063C195.054 13.9364 194.997 13.4789 195.073 12.9339H196.623C196.596 13.1879 196.633 13.4 196.734 13.5701C196.838 13.7378 196.992 13.8648 197.197 13.9511C197.401 14.035 197.642 14.0769 197.918 14.0769C198.192 14.0769 198.435 14.0375 198.647 13.9585C198.861 13.8796 199.035 13.7699 199.168 13.6293C199.301 13.4888 199.383 13.3272 199.412 13.1447C199.442 12.9746 199.416 12.8316 199.335 12.7156C199.253 12.5997 199.123 12.5011 198.943 12.4197C198.765 12.3359 198.544 12.2619 198.28 12.1978L197.489 11.9906C196.877 11.8353 196.415 11.5924 196.102 11.2619C195.789 10.9314 195.676 10.4863 195.765 9.92653C195.844 9.46784 196.035 9.0671 196.338 8.72432C196.644 8.37907 197.029 8.1115 197.493 7.92162C197.959 7.72926 198.468 7.63309 199.02 7.63309C199.583 7.63309 200.057 7.7305 200.444 7.92531C200.832 8.11767 201.114 8.38647 201.292 8.73172C201.469 9.07697 201.523 9.47894 201.454 9.93763H199.919Z" fill="white"/>
</svg>
