<svg width="25" height="24" viewBox="0 0 25 24" fill="none" xmlns="http://www.w3.org/2000/svg">
<path d="M12.5 23.9016C19.1274 23.9016 24.5 18.5511 24.5 11.9508C24.5 5.35056 19.1274 0 12.5 0C5.87258 0 0.5 5.35056 0.5 11.9508C0.5 18.5511 5.87258 23.9016 12.5 23.9016Z" fill="white"/>
<path d="M12.5 0C5.87284 0 0.5 5.35082 0.5 11.9508C0.5 17.0164 3.66049 21.3443 8.12469 23.0852C8.01605 22.141 7.92716 20.6852 8.1642 19.6525C8.38148 18.718 9.56667 13.7115 9.56667 13.7115C9.56667 13.7115 9.21111 12.9934 9.21111 11.941C9.21111 10.2787 10.179 9.03934 11.384 9.03934C12.4111 9.03934 12.9049 9.80656 12.9049 10.7213C12.9049 11.7443 12.2531 13.2787 11.9074 14.7049C11.621 15.8951 12.5099 16.8689 13.6852 16.8689C15.8185 16.8689 17.458 14.6262 17.458 11.4C17.458 8.5377 15.3938 6.54098 12.4407 6.54098C9.02346 6.54098 7.01852 9.08852 7.01852 11.7246C7.01852 12.7475 7.41358 13.8492 7.90741 14.4492C8.00617 14.5672 8.01605 14.6754 7.98642 14.7934C7.89753 15.1672 7.69012 15.9836 7.65062 16.1508C7.60123 16.3672 7.47284 16.4164 7.24568 16.3082C5.74444 15.6098 4.80617 13.4361 4.80617 11.6754C4.80617 7.9082 7.55185 4.4459 12.737 4.4459C16.8951 4.4459 20.1346 7.39672 20.1346 11.3508C20.1346 15.4721 17.5272 18.7869 13.9123 18.7869C12.6975 18.7869 11.5519 18.1574 11.1667 17.4098C11.1667 17.4098 10.5642 19.6918 10.416 20.2525C10.1494 21.2951 9.41852 22.5934 8.92469 23.3902C10.0506 23.7344 11.2358 23.9213 12.4802 23.9213C19.1074 23.9213 24.4802 18.5705 24.4802 11.9705C24.5 5.35082 19.1272 0 12.5 0Z" fill="#E60019"/>
</svg>
